<svg xmlns="http://www.w3.org/2000/svg" width="720" height="420" viewBox="0 0 720 420" font-family="system-ui, -apple-system, 'Segoe UI', sans-serif">
<rect width="720" height="420" fill="#fcfcfb"/>
<text x="70" y="22" font-size="15" font-weight="600" fill="#0b0b0b">RICE Score by Initiative</text>
<text x="70" y="36" font-size="11" fill="#52514e">(Reach x Impact x Confidence) / Effort -- higher is higher priority</text>
<line x1="70" y1="370.0" x2="690" y2="370.0" stroke="#e1e0d9" stroke-width="1"/>
<text x="62" y="374.0" font-size="10" fill="#898781" text-anchor="end">0</text>
<line x1="70" y1="287.5" x2="690" y2="287.5" stroke="#e1e0d9" stroke-width="1"/>
<text x="62" y="291.5" font-size="10" fill="#898781" text-anchor="end">241.5</text>
<line x1="70" y1="205.0" x2="690" y2="205.0" stroke="#e1e0d9" stroke-width="1"/>
<text x="62" y="209.0" font-size="10" fill="#898781" text-anchor="end">483</text>
<line x1="70" y1="122.5" x2="690" y2="122.5" stroke="#e1e0d9" stroke-width="1"/>
<text x="62" y="126.5" font-size="10" fill="#898781" text-anchor="end">724.5</text>
<line x1="70" y1="40.0" x2="690" y2="40.0" stroke="#e1e0d9" stroke-width="1"/>
<text x="62" y="44.0" font-size="10" fill="#898781" text-anchor="end">966</text>
<rect x="89.9" y="83.0" width="48.7" height="287.0" rx="3" fill="#2a78d6"/>
<text x="114.3" y="77.0" font-size="10" fill="#52514e" text-anchor="middle">840</text>
<text x="114.3" y="386" font-size="10" fill="#898781" text-anchor="middle">Reallocate growth budg…</text>
<rect x="178.5" y="329.0" width="48.7" height="41.0" rx="3" fill="#2a78d6"/>
<text x="202.9" y="323.0" font-size="10" fill="#52514e" text-anchor="middle">120</text>
<text x="202.9" y="386" font-size="10" fill="#898781" text-anchor="middle">Redesign discount cale…</text>
<rect x="267.1" y="335.8" width="48.7" height="34.2" rx="3" fill="#2a78d6"/>
<text x="291.4" y="329.8" font-size="10" fill="#52514e" text-anchor="middle">100</text>
<text x="291.4" y="386" font-size="10" fill="#898781" text-anchor="middle">Post-purchase lifecycl…</text>
<rect x="355.6" y="345.4" width="48.7" height="24.6" rx="3" fill="#2a78d6"/>
<text x="380.0" y="339.4" font-size="10" fill="#52514e" text-anchor="middle">72</text>
<text x="380.0" y="386" font-size="10" fill="#898781" text-anchor="middle">Smart Size & Fit Recom…</text>
<rect x="444.2" y="348.1" width="48.7" height="21.9" rx="3" fill="#2a78d6"/>
<text x="468.6" y="342.1" font-size="10" fill="#52514e" text-anchor="middle">64</text>
<text x="468.6" y="386" font-size="10" fill="#898781" text-anchor="middle">Scoped scarcity messag…</text>
<rect x="532.8" y="364.0" width="48.7" height="6.0" rx="3" fill="#2a78d6"/>
<text x="557.1" y="358.0" font-size="10" fill="#52514e" text-anchor="middle">17.5</text>
<text x="557.1" y="386" font-size="10" fill="#898781" text-anchor="middle">Tier 3 city fulfillmen…</text>
<rect x="621.4" y="370.0" width="48.7" height="1.0" rx="3" fill="#2a78d6"/>
<text x="645.7" y="364.0" font-size="10" fill="#52514e" text-anchor="middle">0</text>
<text x="645.7" y="386" font-size="10" fill="#898781" text-anchor="middle">Return-reason structur…</text>
<line x1="70" y1="370.0" x2="690" y2="370.0" stroke="#c3c2b7" stroke-width="1.5"/>
</svg>