<svg xmlns="http://www.w3.org/2000/svg" width="720" height="420" viewBox="0 0 720 420" font-family="system-ui, -apple-system, 'Segoe UI', sans-serif">
<rect width="720" height="420" fill="#fcfcfb"/>
<text x="70" y="22" font-size="15" font-weight="600" fill="#0b0b0b">Profit Volatility by Model & Demand Tier</text>
<text x="70" y="36" font-size="11" fill="#52514e">Std. dev. of profit across trials -- higher = riskier</text>
<line x1="70" y1="370.0" x2="690" y2="370.0" stroke="#e1e0d9" stroke-width="1"/>
<text x="62" y="374.0" font-size="10" fill="#898781" text-anchor="end">0</text>
<line x1="70" y1="287.5" x2="690" y2="287.5" stroke="#e1e0d9" stroke-width="1"/>
<text x="62" y="291.5" font-size="10" fill="#898781" text-anchor="end">120K</text>
<line x1="70" y1="205.0" x2="690" y2="205.0" stroke="#e1e0d9" stroke-width="1"/>
<text x="62" y="209.0" font-size="10" fill="#898781" text-anchor="end">239K</text>
<line x1="70" y1="122.5" x2="690" y2="122.5" stroke="#e1e0d9" stroke-width="1"/>
<text x="62" y="126.5" font-size="10" fill="#898781" text-anchor="end">359K</text>
<line x1="70" y1="40.0" x2="690" y2="40.0" stroke="#e1e0d9" stroke-width="1"/>
<text x="62" y="44.0" font-size="10" fill="#898781" text-anchor="end">479K</text>
<rect x="92.7" y="290.6" width="45.7" height="79.4" rx="2" fill="#2a78d6"/>
<text x="115.3" y="285.6" font-size="9" fill="#52514e" text-anchor="middle">115K</text>
<rect x="146.5" y="83.0" width="45.7" height="287.0" rx="2" fill="#eb6834"/>
<text x="169.0" y="78.0" font-size="9" fill="#52514e" text-anchor="middle">416K</text>
<rect x="200.2" y="153.7" width="45.7" height="216.3" rx="2" fill="#1baf7a"/>
<text x="222.8" y="148.7" font-size="9" fill="#52514e" text-anchor="middle">314K</text>
<text x="173.3" y="386" font-size="10" fill="#898781" text-anchor="middle">Hot / predictable</text>
<rect x="299.4" y="309.1" width="45.7" height="60.9" rx="2" fill="#2a78d6"/>
<text x="322.0" y="304.1" font-size="9" fill="#52514e" text-anchor="middle">88K</text>
<rect x="353.1" y="135.0" width="45.7" height="235.0" rx="2" fill="#eb6834"/>
<text x="375.7" y="130.0" font-size="9" fill="#52514e" text-anchor="middle">341K</text>
<rect x="406.9" y="196.9" width="45.7" height="173.1" rx="2" fill="#1baf7a"/>
<text x="429.4" y="191.9" font-size="9" fill="#52514e" text-anchor="middle">251K</text>
<text x="380.0" y="386" font-size="10" fill="#898781" text-anchor="middle">Medium</text>
<rect x="506.1" y="334.9" width="45.7" height="35.1" rx="2" fill="#2a78d6"/>
<text x="528.6" y="329.9" font-size="9" fill="#52514e" text-anchor="middle">51K</text>
<rect x="559.8" y="232.3" width="45.7" height="137.7" rx="2" fill="#eb6834"/>
<text x="582.4" y="227.3" font-size="9" fill="#52514e" text-anchor="middle">200K</text>
<rect x="613.5" y="275.5" width="45.7" height="94.5" rx="2" fill="#1baf7a"/>
<text x="636.1" y="270.5" font-size="9" fill="#52514e" text-anchor="middle">137K</text>
<text x="586.7" y="386" font-size="10" fill="#898781" text-anchor="middle">Slow / high-uncertainty</text>
<line x1="70" y1="370.0" x2="690" y2="370.0" stroke="#c3c2b7" stroke-width="1.5"/>
<rect x="70.0" y="14" width="10" height="10" rx="2" fill="#2a78d6"/>
<text x="84.0" y="23" font-size="10" fill="#52514e">MP</text>
<rect x="114.0" y="14" width="10" height="10" rx="2" fill="#eb6834"/>
<text x="128.0" y="23" font-size="10" fill="#52514e">OR</text>
<rect x="158.0" y="14" width="10" height="10" rx="2" fill="#1baf7a"/>
<text x="172.0" y="23" font-size="10" fill="#52514e">SOR</text>
</svg>